<?xml version="1.0" encoding="UTF-8" standalone="no"?>
<!DOCTYPE svg PUBLIC "-//W3C//DTD SVG 1.1//EN" "http://www.w3.org/Graphics/SVG/1.1/DTD/svg11.dtd">
<!-- Created with Vectornator (http://vectornator.io/) -->
<svg height="1440.0pt" stroke-miterlimit="10" style="fill-rule:nonzero;clip-rule:evenodd;stroke-linecap:round;stroke-linejoin:round;" version="1.1" viewBox="0 0 2160 1440" width="2160.0pt" xml:space="preserve" xmlns="http://www.w3.org/2000/svg" xmlns:xlink="http://www.w3.org/1999/xlink">
<defs/>
<g id="Layer-1">
<path d="M130.14 1003.88L2029.86 1003.88L2029.86 1080L130.14 1080L130.14 1003.88Z" fill="#3395ff" fill-rule="nonzero" opacity="1" stroke="none"/>
<path d="M846.621 899.124L1168.78 899.124L1168.78 949.956L846.621 949.956L846.621 899.124Z" fill="#3395ff" fill-rule="nonzero" opacity="1" stroke="none"/>
<path d="M1231.98 820.395L1554.15 820.395L1554.15 844.841L1231.98 844.841L1231.98 820.395Z" fill="#3395ff" fill-rule="nonzero" opacity="1" stroke="none"/>
<path d="M1620.38 767.086L1981.34 767.086L1981.34 805.804L1620.38 805.804L1620.38 767.086Z" fill="#3395ff" fill-rule="nonzero" opacity="1" stroke="none"/>
<path d="M980.639 683.433L1197.56 683.433L1197.56 707.879L980.639 707.879L980.639 683.433Z" fill="#3395ff" fill-rule="nonzero" opacity="1" stroke="none"/>
<path d="M700.667 626.604L940.208 626.604L940.208 639.043L700.667 639.043L700.667 626.604Z" fill="#3395ff" fill-rule="nonzero" opacity="1" stroke="none"/>
<path d="M336.289 614.164L575.83 614.164L575.83 626.604L336.289 626.604L336.289 614.164Z" fill="#3395ff" fill-rule="nonzero" opacity="1" stroke="none"/>
</g>
</svg>
